# xmcd CD database file
#
# Track frame offsets:
#	187
#	13447
#	28040
#	36125
#	46977
#	61590
#	71052
#	82977
#	96490
#	106960
#	115197
#	126372
#
# Disc length: 1861 seconds
#
# Revision: 7
# Processed by: cddbd v1.5.2PL0 Copyright (c) Steve Scherf et al.
# Submitted via: CDex 1.51
#
DISCID=a107430c
DTITLE=J.J. Cale - Really
DYEAR=1972
DGENRE=Blues
TTITLE0=Lies
TTITLE1=Everything Will Be Alright
TTITLE2=I'll Kiss The World Goodbye
TTITLE3=Changes
TTITLE4=Right Down Here
TTITLE5=If You're Ever In Oklahoma
TTITLE6=Ridin' Home
TTITLE7=Going Down
TTITLE8=Soulin'
TTITLE9=Playing In The Street
TTITLE10=Mo Jo
TTITLE11=Louisiana Women
EXTD=There was a mistake on Titles of Tracks 6 and 12 YEAR: 1972
EXTT0=
EXTT1=
EXTT2=
EXTT3=
EXTT4=
EXTT5=
EXTT6=
EXTT7=
EXTT8=
EXTT9=
EXTT10=
EXTT11=
PLAYORDER=
